<svg viewBox="0 0 200 200" data-name="elle" xmlns="http://www.w3.org/2000/svg"><path d="M34.4 32.0Q34.5 26.6 39.8 26.1Q45.1 25.6 52.1 25.9Q59.0 26.2 64.9 25.8Q70.7 25.4 75.6 25.4Q80.6 25.4 86.2 26.7Q91.8 27.9 91.8 32.8Q91.8 37.6 91.7 43.3Q91.5 48.9 91.4 53.8Q91.2 58.7 92.7 65.2Q94.1 71.7 94.2 76.3Q94.3 80.9 94.6 86.8Q95.0 92.7 95.6 99.5Q96.3 106.3 96.6 111.9Q97.0 117.4 103.0 115.3Q109.1 113.2 113.4 113.6Q117.7 113.9 122.3 113.5Q126.8 113.1 133.6 112.3Q140.4 111.5 145.1 111.5Q149.7 111.4 154.9 112.8Q160.1 114.2 165.0 112.8Q169.9 111.5 170.0 118.8Q170.2 126.0 170.3 131.2Q170.3 136.4 171.4 143.9Q172.5 151.4 172.6 156.4Q172.7 161.5 173.6 166.2Q174.6 170.9 169.7 170.7Q164.8 170.5 159.3 172.1Q153.8 173.6 147.2 173.1Q140.7 172.6 136.1 172.3Q131.5 171.9 125.4 173.8Q119.2 175.7 115.0 174.6Q110.8 173.5 104.7 175.5Q98.6 177.4 92.2 177.3Q85.8 177.1 80.0 177.1Q74.1 177.0 69.6 177.7Q65.2 178.4 59.9 177.7Q54.5 177.0 48.2 178.5Q41.8 180.0 36.1 178.9Q30.3 177.9 30.0 172.8Q29.8 167.8 30.6 160.7Q31.3 153.6 32.2 148.9Q33.1 144.1 32.9 138.5Q32.8 133.0 33.2 127.9Q33.7 122.7 33.5 117.9Q33.2 113.2 33.5 108.1Q33.9 103.0 33.9 97.7Q34.0 92.3 35.5 86.5Q37.0 80.6 36.7 74.8Q36.5 69.0 36.5 64.0Q36.4 59.0 35.3 54.6Q34.2 50.2 34.3 43.8Q34.4 37.4 34.4 32.0Z" fill="#000"/><path d="M40.7 34.3Q40.1 30.6 42.2 32.0Q44.3 33.4 51.4 33.8Q58.4 34.3 65.2 33.7Q72.1 33.2 75.3 32.9Q78.5 32.6 81.6 33.1Q84.8 33.6 83.7 36.0Q82.6 38.5 82.0 43.2Q81.3 47.9 81.1 53.5Q81.0 59.1 81.8 66.2Q82.7 73.4 83.3 76.8Q83.9 80.3 84.0 87.2Q84.1 94.0 85.2 100.5Q86.3 107.0 89.6 116.3Q92.9 125.7 102.1 124.5Q111.2 123.3 114.9 123.1Q118.6 123.0 122.7 121.7Q126.9 120.4 133.9 119.5Q141.0 118.6 145.0 118.1Q149.0 117.6 154.7 119.0Q160.5 120.3 162.2 117.7Q164.0 115.0 163.9 120.7Q163.8 126.3 163.8 131.3Q163.8 136.3 164.8 144.6Q165.9 153.0 165.9 158.1Q165.9 163.2 167.0 165.1Q168.1 167.1 166.4 165.0Q164.6 162.8 158.9 164.1Q153.1 165.3 147.7 164.1Q142.3 162.9 136.4 162.8Q130.6 162.7 124.3 164.7Q118.1 166.6 114.3 164.7Q110.5 162.8 104.0 165.1Q97.6 167.4 91.8 167.4Q86.0 167.4 79.2 167.4Q72.5 167.3 68.7 168.4Q65.0 169.5 59.1 168.9Q53.3 168.2 47.7 169.6Q42.1 171.0 39.8 170.8Q37.5 170.7 38.1 169.5Q38.7 168.3 39.4 161.5Q40.1 154.6 40.3 149.3Q40.4 144.0 40.8 138.3Q41.1 132.6 41.0 127.6Q40.8 122.6 40.9 117.9Q41.1 113.3 40.9 108.6Q40.7 103.9 41.0 99.0Q41.3 94.0 42.4 88.2Q43.5 82.5 44.0 76.2Q44.4 69.9 44.7 64.3Q45.0 58.8 43.0 54.0Q40.9 49.2 41.2 43.6Q41.4 38.1 40.7 34.3Z" fill="#BFCBD8"/><ellipse cx="51" cy="70" rx="10" ry="13" fill="#fff" transform="rotate(-5 51 70)"/><ellipse cx="55" cy="71" rx="6" ry="8" fill="#000" transform="rotate(15 55 71)"/><ellipse cx="76" cy="68" rx="11" ry="14" fill="#fff" transform="rotate(7 76 68)"/><ellipse cx="80" cy="69" rx="6.5" ry="8.5" fill="#000" transform="rotate(15 80 69)"/><path d="M43.1 57.1L38.7 49.9" stroke="#000" stroke-width="3" stroke-linecap="round" fill="none"/><path d="M47.7 53.0L45.7 42.6" stroke="#000" stroke-width="3" stroke-linecap="round" fill="none"/><path d="M54.5 53.6L56.3 45.2" stroke="#000" stroke-width="3" stroke-linecap="round" fill="none"/><path d="M71.5 52.0L68.3 40.9" stroke="#000" stroke-width="3" stroke-linecap="round" fill="none"/><path d="M75.4 51.7L75.0 40.4" stroke="#000" stroke-width="3" stroke-linecap="round" fill="none"/><path d="M79.9 51.7L83.0 39.1" stroke="#000" stroke-width="3" stroke-linecap="round" fill="none"/><path d="M83.5 54.1L89.7 42.4" stroke="#000" stroke-width="3" stroke-linecap="round" fill="none"/></svg>
