<svg viewBox="0 0 200 200" data-name="keno" xmlns="http://www.w3.org/2000/svg"><path d="M96.4 26.8Q98.4 19.8 103.7 25.8Q108.9 31.8 110.8 38.5Q112.7 45.1 115.9 50.3Q119.0 55.6 121.5 60.8Q124.0 66.1 125.8 71.7Q127.6 77.4 131.4 82.8Q135.2 88.2 137.7 94.0Q140.3 99.7 142.1 105.2Q143.9 110.7 148.1 115.0Q152.4 119.4 154.8 125.5Q157.3 131.6 161.5 136.4Q165.8 141.2 169.8 146.4Q173.9 151.5 177.0 156.3Q180.1 161.0 182.7 167.4Q185.2 173.8 178.8 174.6Q172.5 175.5 165.1 173.6Q157.8 171.7 152.1 172.8Q146.5 173.8 141.1 173.0Q135.6 172.1 129.5 172.0Q123.4 171.9 117.8 172.0Q112.1 172.2 106.6 173.2Q101.1 174.3 95.9 175.1Q90.6 176.0 84.8 176.8Q79.0 177.7 73.3 177.6Q67.6 177.5 60.3 177.8Q52.9 178.1 48.5 177.8Q44.1 177.5 37.6 176.6Q31.0 175.8 25.1 175.8Q19.2 175.9 23.1 170.3Q26.9 164.7 28.9 160.3Q31.0 155.9 35.3 148.9Q39.6 141.9 41.7 136.8Q43.7 131.7 44.9 125.8Q46.1 119.8 49.7 115.2Q53.2 110.6 54.6 104.5Q56.0 98.5 58.9 93.3Q61.9 88.1 65.7 83.1Q69.4 78.2 74.0 72.3Q78.6 66.5 82.0 61.0Q85.5 55.4 87.1 50.7Q88.7 46.0 91.6 39.9Q94.5 33.7 96.4 26.8Z" fill="#000"/><path d="M100.7 33.0Q100.6 29.1 100.6 33.4Q100.6 37.7 101.9 43.3Q103.2 49.0 107.0 54.7Q110.8 60.3 113.4 64.9Q116.1 69.4 118.4 75.8Q120.6 82.1 124.6 87.0Q128.5 91.9 131.1 96.9Q133.6 101.9 135.3 108.8Q136.9 115.8 141.3 119.8Q145.7 123.8 147.3 129.9Q148.9 135.9 153.9 141.0Q158.9 146.1 162.5 151.9Q166.1 157.7 167.9 161.9Q169.7 166.1 172.5 167.6Q175.4 169.1 174.3 166.8Q173.2 164.5 166.1 161.9Q159.0 159.2 152.2 161.0Q145.3 162.9 141.4 161.8Q137.5 160.8 130.4 161.3Q123.3 161.9 117.0 162.2Q110.7 162.5 104.9 164.0Q99.2 165.5 94.4 166.5Q89.6 167.6 83.9 169.2Q78.3 170.7 72.4 170.5Q66.5 170.3 59.9 170.3Q53.4 170.2 48.9 170.3Q44.3 170.4 37.7 168.5Q31.2 166.7 29.8 169.6Q28.5 172.6 31.6 170.9Q34.7 169.2 37.3 165.5Q40.0 161.8 44.7 154.9Q49.4 148.0 51.8 141.3Q54.2 134.7 55.7 130.1Q57.1 125.5 60.3 120.1Q63.5 114.8 64.5 108.6Q65.4 102.5 67.6 98.5Q69.8 94.4 73.7 88.8Q77.7 83.2 81.4 77.7Q85.2 72.1 89.0 65.9Q92.9 59.6 94.0 53.8Q95.2 48.0 98.0 42.5Q100.7 37.0 100.7 33.0Z" fill="#D68A6E"/><ellipse cx="81" cy="124" rx="13" ry="15" fill="#fff" transform="rotate(6 81 124)"/><ellipse cx="75" cy="127" rx="7.5" ry="9" fill="#000" transform="rotate(-20 75 127)"/><ellipse cx="120" cy="120" rx="12" ry="14" fill="#fff" transform="rotate(-4 120 120)"/><ellipse cx="114" cy="123" rx="7" ry="8.5" fill="#000" transform="rotate(-20 114 123)"/><path d="M71.0 109.6L66.7 103.4" stroke="#000" stroke-width="3.4" stroke-linecap="round" fill="none"/><path d="M76.5 106.8L74.0 97.3" stroke="#000" stroke-width="3.4" stroke-linecap="round" fill="none"/><path d="M81.6 107.5L82.1 96.3" stroke="#000" stroke-width="3.4" stroke-linecap="round" fill="none"/><path d="M118.7 101.6L118.3 95.9" stroke="#000" stroke-width="3.4" stroke-linecap="round" fill="none"/><path d="M124.9 102.4L126.2 97.7" stroke="#000" stroke-width="3.4" stroke-linecap="round" fill="none"/><path d="M129.8 104.9L133.8 98.8" stroke="#000" stroke-width="3.4" stroke-linecap="round" fill="none"/></svg>
