<svg viewBox="0 0 200 200" data-name="moso" xmlns="http://www.w3.org/2000/svg"><path d="M30.5 46.0Q31.0 38.6 37.8 37.5Q44.6 36.4 51.4 35.1Q58.2 33.7 65.5 34.6Q72.9 35.4 79.1 34.1Q85.3 32.8 92.9 34.1Q100.6 35.5 107.2 34.6Q113.9 33.7 121.4 33.2Q128.9 32.6 135.4 33.0Q141.9 33.4 147.4 32.9Q152.8 32.3 159.1 32.8Q165.4 33.3 165.5 38.8Q165.5 44.4 167.1 50.7Q168.7 57.0 169.3 63.1Q169.9 69.2 169.7 76.2Q169.5 83.1 171.1 90.2Q172.7 97.3 172.3 104.2Q171.9 111.2 172.1 117.4Q172.3 123.6 172.7 131.0Q173.1 138.5 171.8 145.0Q170.6 151.5 171.0 158.2Q171.5 165.0 165.8 163.7Q160.1 162.4 154.0 162.3Q147.9 162.3 140.3 163.9Q132.8 165.6 125.8 165.8Q118.8 166.1 112.1 167.2Q105.3 168.4 100.1 169.1Q94.9 169.7 88.6 170.0Q82.3 170.2 75.4 171.2Q68.5 172.2 61.8 172.1Q55.0 172.1 48.9 172.9Q42.9 173.8 35.5 173.0Q28.2 172.3 28.1 165.7Q28.1 159.0 29.8 152.9Q31.6 146.8 32.3 138.9Q33.1 131.0 32.5 125.1Q32.0 119.2 31.3 112.1Q30.6 105.1 30.6 97.9Q30.6 90.6 30.1 85.1Q29.6 79.6 29.5 72.1Q29.3 64.5 29.7 59.0Q30.1 53.4 30.5 46.0Z" fill="#000"/><path d="M40.2 50.4Q39.3 45.9 42.7 46.0Q46.0 46.1 52.1 45.4Q58.2 44.8 66.2 45.0Q74.2 45.2 79.4 44.2Q84.6 43.1 92.1 44.8Q99.7 46.6 107.4 45.4Q115.2 44.3 121.6 43.7Q127.9 43.2 134.9 43.4Q141.8 43.6 147.8 42.6Q153.9 41.7 156.9 40.5Q159.9 39.3 159.2 41.9Q158.5 44.5 160.5 51.7Q162.4 58.8 162.8 64.5Q163.2 70.1 162.2 76.9Q161.2 83.7 162.1 91.0Q163.0 98.3 162.2 104.2Q161.4 110.1 161.5 116.7Q161.7 123.3 162.1 130.1Q162.6 136.9 160.9 143.5Q159.3 150.1 161.2 153.4Q163.1 156.7 161.6 154.9Q160.0 153.0 153.5 152.1Q146.9 151.1 138.9 152.9Q130.9 154.6 124.1 154.5Q117.4 154.3 110.9 156.5Q104.4 158.6 99.2 158.8Q94.0 159.1 87.2 159.2Q80.4 159.4 74.0 161.0Q67.6 162.6 61.4 162.9Q55.2 163.3 48.5 165.3Q41.8 167.3 37.6 166.9Q33.4 166.5 34.5 162.7Q35.6 158.9 37.5 154.1Q39.5 149.3 41.1 140.4Q42.7 131.6 41.9 124.8Q41.0 117.9 40.5 111.6Q40.0 105.3 40.5 98.0Q41.1 90.8 40.3 84.7Q39.6 78.5 39.9 72.1Q40.3 65.7 40.7 60.3Q41.1 54.9 40.2 50.4Z" fill="#6fd305"/><ellipse cx="78" cy="78" rx="15" ry="18" fill="#fff" transform="rotate(-8 78 78)"/><ellipse cx="83" cy="71" rx="8" ry="10" fill="#000" transform="rotate(30 83 71)"/><ellipse cx="124" cy="74" rx="13" ry="16" fill="#fff" transform="rotate(6 124 74)"/><ellipse cx="129" cy="68" rx="7.5" ry="9" fill="#000" transform="rotate(30 129 68)"/><path d="M65.5 61.4L59.3 53.1" stroke="#000" stroke-width="3.4" stroke-linecap="round" fill="none"/><path d="M71.0 59.7L67.2 49.9" stroke="#000" stroke-width="3.4" stroke-linecap="round" fill="none"/><path d="M75.8 58.8L74.4 46.9" stroke="#000" stroke-width="3.4" stroke-linecap="round" fill="none"/><path d="M84.3 57.6L87.4 47.2" stroke="#000" stroke-width="3.4" stroke-linecap="round" fill="none"/><path d="M120.1 54.9L117.7 42.9" stroke="#000" stroke-width="3.4" stroke-linecap="round" fill="none"/><path d="M124.2 56.8L124.3 45.9" stroke="#000" stroke-width="3.4" stroke-linecap="round" fill="none"/><path d="M128.7 57.5L132.3 45.0" stroke="#000" stroke-width="3.4" stroke-linecap="round" fill="none"/><path d="M135.8 59.1L142.2 50.9" stroke="#000" stroke-width="3.4" stroke-linecap="round" fill="none"/></svg>
