<svg viewBox="0 0 200 200" data-name="pebble" xmlns="http://www.w3.org/2000/svg"><path d="M173.9 95.4Q176.2 101.7 175.1 109.3Q174.0 116.8 172.7 124.7Q171.4 132.5 168.4 138.5Q165.4 144.5 159.9 149.7Q154.4 155.0 147.4 158.4Q140.4 161.9 133.8 165.5Q127.1 169.1 120.0 170.9Q112.9 172.7 105.7 173.7Q98.5 174.7 91.5 174.3Q84.5 173.9 78.0 171.7Q71.5 169.6 63.3 167.9Q55.0 166.2 50.2 159.8Q45.4 153.3 42.1 148.9Q38.8 144.4 34.4 137.0Q30.0 129.6 28.1 122.8Q26.3 115.9 26.1 108.9Q25.9 101.8 26.0 94.6Q26.2 87.3 26.7 81.7Q27.2 76.0 30.9 68.7Q34.7 61.4 40.0 56.1Q45.4 50.8 51.3 46.0Q57.2 41.2 64.7 40.3Q72.2 39.3 79.7 37.2Q87.3 35.1 93.4 33.7Q99.5 32.4 107.4 33.0Q115.4 33.6 121.7 34.1Q128.1 34.6 135.4 38.0Q142.8 41.4 149.5 46.0Q156.3 50.6 159.2 57.1Q162.2 63.6 165.8 69.7Q169.3 75.8 170.5 82.4Q171.7 89.1 173.9 95.4Z" fill="#000"/><path d="M164.0 97.3Q164.6 103.0 163.6 108.9Q162.6 114.8 162.2 122.4Q161.8 130.0 159.7 134.6Q157.6 139.2 153.5 143.7Q149.4 148.2 143.2 152.3Q137.0 156.3 130.6 159.6Q124.2 162.9 117.3 164.0Q110.4 165.1 104.1 164.6Q97.8 164.0 92.4 163.9Q87.1 163.8 80.3 160.7Q73.4 157.6 67.6 156.8Q61.8 155.9 57.7 150.9Q53.5 145.8 49.7 142.7Q45.8 139.5 42.2 133.4Q38.6 127.4 36.2 120.6Q33.8 113.8 33.4 108.1Q33.0 102.4 34.0 95.2Q34.9 88.0 35.0 83.5Q35.2 78.9 38.9 73.2Q42.6 67.6 47.3 63.6Q52.0 59.6 57.1 55.0Q62.3 50.4 68.1 50.5Q73.9 50.6 81.6 48.3Q89.3 46.0 94.7 44.4Q100.0 42.7 107.5 42.5Q115.1 42.4 120.1 42.7Q125.1 42.9 132.0 46.3Q138.8 49.6 143.9 53.4Q148.9 57.2 151.7 62.1Q154.5 67.0 157.8 73.4Q161.2 79.8 162.3 85.7Q163.4 91.6 164.0 97.3Z" fill="#8FA7CE"/><ellipse cx="86" cy="92" rx="12" ry="14" fill="#fff" transform="rotate(4 86 92)"/><ellipse cx="86" cy="94" rx="7" ry="9" fill="#000" transform="rotate(0 86 94)"/><ellipse cx="117" cy="90" rx="13" ry="15" fill="#fff" transform="rotate(-6 117 90)"/><ellipse cx="117" cy="92" rx="7.5" ry="9.5" fill="#000" transform="rotate(0 117 92)"/><path d="M78.3 75.3L74.0 65.8" stroke="#000" stroke-width="3.4" stroke-linecap="round" fill="none"/><path d="M83.4 74.9L81.6 62.8" stroke="#000" stroke-width="3.4" stroke-linecap="round" fill="none"/><path d="M90.3 75.3L92.6 66.1" stroke="#000" stroke-width="3.4" stroke-linecap="round" fill="none"/><path d="M112.8 71.8L110.5 61.9" stroke="#000" stroke-width="3.4" stroke-linecap="round" fill="none"/><path d="M118.3 71.4L119.2 59.6" stroke="#000" stroke-width="3.4" stroke-linecap="round" fill="none"/><path d="M126.7 73.4L132.5 63.6" stroke="#000" stroke-width="3.4" stroke-linecap="round" fill="none"/></svg>
