<svg viewBox="0 0 200 200" data-name="tato" xmlns="http://www.w3.org/2000/svg"><path d="M17.2 83.5Q17.2 78.2 22.0 77.8Q26.9 77.3 32.0 76.9Q37.2 76.5 44.2 75.1Q51.3 73.7 57.8 73.2Q64.2 72.7 69.2 71.9Q74.3 71.0 81.7 72.2Q89.2 73.4 95.0 73.5Q100.9 73.6 105.5 73.6Q110.0 73.6 116.9 73.6Q123.9 73.7 130.8 74.2Q137.6 74.8 142.3 75.2Q146.9 75.7 152.9 75.2Q158.9 74.7 165.5 73.1Q172.2 71.6 178.6 70.9Q185.1 70.2 185.5 75.6Q185.9 81.0 187.1 87.0Q188.2 92.9 187.7 98.5Q187.1 104.0 187.0 110.9Q186.8 117.7 186.0 123.1Q185.2 128.4 185.2 133.1Q185.2 137.8 179.0 137.5Q172.7 137.2 167.8 137.6Q162.9 137.9 156.9 140.0Q150.9 142.2 143.8 142.0Q136.7 141.8 130.6 142.2Q124.5 142.6 119.3 142.5Q114.1 142.4 106.1 141.5Q98.1 140.6 93.2 141.7Q88.2 142.9 81.6 141.7Q75.0 140.6 68.9 141.2Q62.8 141.8 56.0 142.1Q49.3 142.4 43.7 143.3Q38.1 144.1 31.3 144.2Q24.5 144.3 17.9 146.1Q11.3 147.9 11.0 140.8Q10.8 133.7 11.2 127.2Q11.6 120.6 11.9 116.2Q12.3 111.8 14.4 105.4Q16.4 98.9 16.8 93.8Q17.2 88.7 17.2 83.5Z" fill="#000"/><path d="M24.2 86.9Q25.0 84.3 26.8 85.4Q28.5 86.4 33.4 85.8Q38.3 85.3 45.9 84.0Q53.6 82.7 59.0 83.2Q64.5 83.7 69.5 82.8Q74.6 81.9 81.7 82.8Q88.8 83.6 94.6 83.9Q100.3 84.2 105.1 83.7Q109.9 83.3 116.2 83.0Q122.6 82.6 130.2 83.3Q137.8 84.0 142.6 83.5Q147.5 83.0 153.5 82.9Q159.5 82.7 166.5 81.2Q173.4 79.6 176.3 78.2Q179.1 76.8 178.0 79.9Q176.8 83.0 177.5 88.3Q178.1 93.7 176.8 98.6Q175.5 103.5 175.8 109.9Q176.1 116.4 175.3 121.7Q174.5 127.1 177.0 127.8Q179.5 128.6 176.3 128.8Q173.0 128.9 166.5 129.2Q159.9 129.5 154.9 132.0Q150.0 134.4 143.4 133.6Q136.8 132.7 130.4 133.8Q124.0 134.9 119.8 133.9Q115.6 133.0 106.4 132.0Q97.1 131.0 92.2 132.5Q87.2 133.9 80.9 133.1Q74.6 132.2 68.5 131.8Q62.4 131.3 55.4 131.5Q48.3 131.7 42.8 132.1Q37.3 132.5 29.7 132.4Q22.1 132.3 19.7 135.8Q17.3 139.3 19.3 136.1Q21.4 133.0 21.4 127.5Q21.4 122.1 21.2 118.2Q20.9 114.3 21.7 107.3Q22.6 100.4 23.0 95.0Q23.3 89.6 24.2 86.9Z" fill="#E3C489"/><ellipse cx="58" cy="106" rx="13" ry="15" fill="#fff" transform="rotate(-6 58 106)"/><ellipse cx="60" cy="99" rx="7.5" ry="9" fill="#000" transform="rotate(20 60 99)"/><ellipse cx="142" cy="103" rx="12" ry="14" fill="#fff" transform="rotate(8 142 103)"/><ellipse cx="144" cy="97" rx="7" ry="8.5" fill="#000" transform="rotate(20 144 97)"/><path d="M49.2 90.7L45.8 85.0" stroke="#000" stroke-width="3" stroke-linecap="round" fill="none"/><path d="M55.8 89.7L54.9 83.0" stroke="#000" stroke-width="3" stroke-linecap="round" fill="none"/><path d="M60.4 89.7L62.0 78.8" stroke="#000" stroke-width="3" stroke-linecap="round" fill="none"/><path d="M65.4 90.7L69.2 82.8" stroke="#000" stroke-width="3" stroke-linecap="round" fill="none"/><path d="M137.2 89.0L134.2 80.3" stroke="#000" stroke-width="3" stroke-linecap="round" fill="none"/><path d="M142.0 86.3L142.0 77.2" stroke="#000" stroke-width="3" stroke-linecap="round" fill="none"/><path d="M147.9 87.5L150.5 80.9" stroke="#000" stroke-width="3" stroke-linecap="round" fill="none"/></svg>
