<svg viewBox="0 0 200 200" data-name="zig" xmlns="http://www.w3.org/2000/svg"><path d="M111.0 15.4Q113.9 10.8 118.2 11.5Q122.5 12.1 127.2 11.9Q131.9 11.7 136.6 12.9Q141.4 14.0 147.0 14.5Q152.5 14.9 149.7 19.1Q146.8 23.2 145.1 26.3Q143.4 29.4 141.3 33.7Q139.3 37.9 137.0 42.1Q134.7 46.4 133.4 50.5Q132.0 54.6 131.0 58.8Q130.1 63.1 127.9 67.5Q125.7 71.9 124.8 75.4Q123.9 78.8 127.7 78.2Q131.5 77.7 134.7 78.2Q137.9 78.7 143.0 79.8Q148.1 80.9 152.3 81.2Q156.5 81.6 153.0 86.0Q149.5 90.4 145.8 92.8Q142.2 95.3 139.0 99.1Q135.8 103.0 133.7 106.5Q131.6 110.1 128.1 113.6Q124.6 117.1 121.5 121.3Q118.4 125.4 115.8 128.3Q113.2 131.1 110.4 135.6Q107.6 140.0 104.9 143.9Q102.1 147.7 99.4 150.8Q96.6 153.9 93.3 158.1Q90.1 162.2 88.0 165.2Q85.8 168.2 81.9 171.7Q78.0 175.1 75.1 178.9Q72.3 182.7 70.0 185.9Q67.8 189.1 68.5 184.3Q69.3 179.5 71.4 176.3Q73.5 173.2 73.8 168.3Q74.2 163.5 75.6 159.8Q77.1 156.0 77.6 150.6Q78.1 145.1 80.0 141.3Q81.9 137.6 82.4 133.5Q82.9 129.4 84.1 124.9Q85.2 120.5 86.1 115.9Q86.9 111.4 82.3 110.7Q77.7 110.1 73.8 108.8Q69.9 107.6 64.9 106.4Q59.8 105.3 62.7 101.5Q65.6 97.6 67.5 94.2Q69.5 90.7 72.4 87.0Q75.3 83.3 77.6 78.4Q79.9 73.5 81.8 70.0Q83.6 66.5 85.3 62.7Q86.9 58.9 88.6 54.6Q90.3 50.3 93.2 46.4Q96.2 42.5 98.2 39.0Q100.1 35.4 101.5 31.1Q102.9 26.8 105.5 23.4Q108.1 20.0 111.0 15.4Z" fill="#000"/><path d="M114.9 19.5Q117.7 16.6 120.1 18.0Q122.6 19.3 126.8 19.2Q131.0 19.1 135.4 19.4Q139.9 19.8 143.5 19.1Q147.2 18.3 144.7 19.3Q142.2 20.2 140.8 23.6Q139.4 27.0 137.5 31.0Q135.6 35.0 133.4 39.6Q131.1 44.1 129.6 49.0Q128.1 53.9 127.3 57.9Q126.4 61.8 124.1 66.3Q121.8 70.8 121.3 76.1Q120.7 81.4 126.1 81.7Q131.6 82.0 134.1 82.5Q136.5 83.0 142.0 83.8Q147.5 84.6 150.0 83.5Q152.6 82.4 149.5 85.2Q146.4 87.9 143.2 90.2Q140.1 92.5 136.2 96.3Q132.2 100.2 129.9 103.7Q127.6 107.1 124.7 110.3Q121.8 113.5 118.5 118.1Q115.1 122.6 112.2 125.0Q109.3 127.4 106.1 131.9Q103.0 136.3 100.2 140.2Q97.5 144.1 94.6 146.9Q91.7 149.7 88.4 153.7Q85.1 157.6 82.6 160.7Q80.1 163.8 76.1 167.0Q72.1 170.1 69.3 174.6Q66.4 179.1 69.6 181.7Q72.9 184.3 74.3 183.0Q75.8 181.7 77.8 178.4Q79.8 175.0 80.2 169.9Q80.7 164.8 82.0 161.4Q83.3 158.0 84.2 152.2Q85.0 146.3 86.8 142.6Q88.6 138.8 88.7 135.0Q88.8 131.2 89.8 126.6Q90.8 122.0 91.6 115.0Q92.4 108.0 85.6 106.0Q78.8 103.9 75.0 103.2Q71.1 102.5 67.9 102.8Q64.6 103.2 67.1 101.6Q69.6 99.9 71.3 96.6Q72.9 93.3 75.4 89.6Q78.0 85.9 80.5 80.5Q83.1 75.0 85.3 71.6Q87.5 68.1 88.9 64.0Q90.4 59.9 91.8 56.3Q93.3 52.6 96.5 48.8Q99.8 45.1 102.1 41.3Q104.5 37.5 105.7 33.5Q106.9 29.5 109.5 25.9Q112.1 22.4 114.9 19.5Z" fill="#E8B25C"/><ellipse cx="98" cy="60" rx="9" ry="11" fill="#fff" transform="rotate(-8 98 60)"/><ellipse cx="101" cy="57" rx="5.5" ry="7" fill="#000" transform="rotate(25 101 57)"/><ellipse cx="118" cy="56" rx="8" ry="9.5" fill="#fff" transform="rotate(6 118 56)"/><ellipse cx="121" cy="53" rx="5" ry="6" fill="#000" transform="rotate(25 121 53)"/><path d="M92.2 48.1L90.3 44.2" stroke="#000" stroke-width="2.8" stroke-linecap="round" fill="none"/><path d="M96.1 47.6L95.2 41.9" stroke="#000" stroke-width="2.8" stroke-linecap="round" fill="none"/><path d="M99.3 46.8L99.7 42.3" stroke="#000" stroke-width="2.8" stroke-linecap="round" fill="none"/><path d="M115.7 46.0L114.5 40.6" stroke="#000" stroke-width="2.8" stroke-linecap="round" fill="none"/><path d="M119.2 43.6L119.8 37.8" stroke="#000" stroke-width="2.8" stroke-linecap="round" fill="none"/><path d="M121.7 46.0L124.0 39.9" stroke="#000" stroke-width="2.8" stroke-linecap="round" fill="none"/></svg>
